<?xml version="1.0" standalone="no"?>
<!DOCTYPE svg PUBLIC "-//W3C//DTD SVG 20010904//EN"
 "http://www.w3.org/TR/2001/REC-SVG-20010904/DTD/svg10.dtd">
<svg version="1.0" xmlns="http://www.w3.org/2000/svg"
 width="300.000000pt" height="300.000000pt" viewBox="0 0 300.000000 300.000000"
 preserveAspectRatio="xMidYMid meet">
<metadata>
Created by potrace 1.11, written by Peter Selinger 2001-2013
</metadata>
<g transform="translate(0.000000,300.000000) scale(0.100000,-0.100000)"
fill="#000000" stroke="none">
<path d="M701 2993 c13 -3 7 -14 -27 -46 -28 -27 -45 -52 -46 -69 -1 -15 -6
-24 -10 -22 -5 3 -6 9 -3 14 3 5 1 11 -4 14 -5 4 -8 -2 -6 -11 3 -21 -32 -63
-52 -63 -7 0 -13 -4 -13 -10 0 -5 6 -7 13 -4 8 3 14 -2 14 -10 0 -8 -4 -13 -9
-10 -4 3 -8 -2 -8 -11 0 -10 5 -13 12 -9 7 5 8 3 4 -5 -5 -7 -14 -10 -21 -7
-17 6 -33 -13 -38 -45 -2 -13 -7 -22 -10 -19 -10 8 -42 -43 -42 -68 -1 -13 -5
-26 -11 -30 -16 -10 -23 -48 -12 -63 8 -11 8 -10 4 4 -3 10 -2 16 3 12 5 -3 8
-20 7 -38 -2 -17 1 -37 6 -44 6 -7 4 -14 -3 -19 -7 -4 -9 -3 -6 3 4 6 1 13 -6
16 -7 3 -13 -3 -13 -13 0 -10 3 -18 6 -18 3 0 12 0 20 -1 13 -1 13 -3 0 -10
-8 -6 -17 -8 -20 -6 -4 2 -7 -2 -7 -10 0 -11 4 -12 13 -4 8 7 14 6 20 -2 4 -8
3 -9 -4 -5 -7 4 -12 1 -12 -9 0 -10 -5 -13 -12 -9 -10 6 -10 5 -1 -8 7 -8 9
-19 5 -23 -4 -5 -2 -5 5 -1 6 3 15 2 18 -4 4 -6 1 -9 -6 -8 -6 2 -14 -3 -17
-11 -3 -9 0 -11 8 -6 8 5 11 4 7 -3 -4 -5 -15 -9 -25 -7 -9 1 -22 -2 -29 -7
-7 -6 -14 -5 -19 3 -5 8 -3 10 7 4 8 -5 11 -4 6 0 -12 14 -48 13 -54 -2 -4
-10 -9 -11 -18 -3 -9 8 -15 8 -20 0 -3 -6 -12 -7 -18 -3 -9 5 -9 3 0 -8 10
-12 10 -18 0 -29 -10 -10 -8 -12 8 -6 15 6 17 4 8 -5 -18 -18 -37 -1 -21 19
12 15 11 16 -5 3 -10 -8 -16 -20 -13 -27 5 -14 -17 -37 -27 -27 -4 3 -7 2 -8
-3 0 -5 -2 -18 -4 -29 -4 -19 -3 -19 9 -2 12 16 14 16 20 2 3 -9 2 -14 -2 -12
-4 3 -16 -5 -27 -16 -11 -11 -15 -17 -10 -14 6 3 11 -3 11 -13 0 -13 -7 -17
-23 -15 -19 2 -23 -2 -23 -27 0 -21 4 -27 13 -22 9 6 9 5 0 -7 -6 -8 -13 -38
-14 -67 -2 -29 -6 -55 -11 -58 -14 -9 1 -24 17 -17 18 6 20 -13 3 -23 -7 -4
-8 -3 -4 4 5 8 2 10 -8 6 -18 -7 -11 -24 10 -24 8 0 14 -4 14 -9 0 -5 -10 -7
-22 -4 l-23 5 22 -16 c13 -10 23 -22 23 -28 0 -7 -6 -4 -13 7 -11 14 -16 15
-22 5 -5 -8 -4 -11 2 -7 10 6 18 -10 28 -51 2 -6 -1 -10 -6 -6 -5 3 -7 9 -4
14 3 4 -1 10 -8 13 -8 3 -14 -1 -14 -9 0 -8 4 -14 9 -14 5 0 8 -10 7 -22 -2
-13 0 -29 5 -36 5 -8 10 -30 12 -50 2 -24 0 -32 -5 -23 -5 8 -8 22 -6 32 2 10
-4 24 -13 31 -15 12 -16 11 -3 -4 11 -15 11 -18 0 -18 -11 0 -11 -2 1 -10 13
-9 13 -10 0 -10 -10 0 -11 -3 -4 -8 14 -9 26 -54 12 -46 -6 4 -2 -6 8 -22 17
-27 17 -28 1 -15 -10 8 -20 11 -24 7 -3 -3 -1 -6 5 -6 7 0 12 -14 12 -31 0
-21 -4 -28 -12 -23 -10 6 -10 4 0 -8 10 -13 10 -17 0 -21 -10 -4 -10 -6 0 -6
6 -1 12 -12 12 -25 0 -35 10 -57 23 -49 6 3 7 1 3 -5 -4 -6 -13 -9 -21 -6 -8
4 -12 11 -8 17 4 6 1 7 -6 2 -9 -5 -10 -10 -2 -18 15 -15 14 -30 -1 -21 -10 6
-10 5 -1 -7 10 -12 10 -18 0 -29 -9 -11 -7 -10 7 0 17 13 19 13 14 0 -3 -8 6
-26 20 -40 14 -14 20 -17 13 -7 -9 11 -10 17 -2 17 6 0 11 -3 12 -7 3 -32 10
-48 24 -55 8 -5 12 -15 9 -21 -5 -8 -3 -8 6 0 12 11 11 15 -4 26 -16 12 -16
14 -2 14 9 0 16 -4 16 -9 0 -5 5 -6 12 -2 7 4 8 3 4 -4 -4 -7 -2 -12 4 -12 6
0 13 7 16 15 5 12 9 11 24 -7 15 -20 20 -21 34 -8 10 7 16 9 15 4 -1 -5 -1
-16 0 -24 1 -12 4 -11 12 3 6 9 14 15 19 12 5 -3 12 4 15 15 5 16 10 18 19 11
7 -6 17 -7 21 -3 5 4 5 2 1 -5 -4 -7 3 -17 16 -24 20 -11 22 -11 10 3 -10 13
-10 18 -1 24 7 4 9 3 6 -3 -4 -6 0 -14 9 -17 8 -3 12 -2 9 4 -9 15 5 12 21 -5
9 -8 23 -14 32 -14 14 1 14 2 2 5 -9 3 -22 15 -29 27 -13 19 -12 21 1 10 8 -7
19 -9 23 -5 5 4 5 1 1 -5 -5 -9 -2 -11 8 -7 14 6 21 -5 17 -29 -1 -4 8 -2 19
5 11 7 19 19 17 27 -3 20 34 23 62 4 15 -9 21 -10 16 -2 -5 8 -4 10 4 5 15
-10 -4 -36 -22 -32 -7 1 -9 1 -4 -1 12 -7 8 -20 -9 -27 -8 -3 -13 -2 -10 3 3
5 -2 12 -11 15 -9 4 -20 2 -23 -5 -4 -6 -10 -10 -14 -9 -4 1 -12 -1 -19 -4 -6
-2 -3 -4 8 -3 11 2 25 6 32 10 7 4 10 1 8 -10 -1 -10 -9 -17 -18 -15 -12 2
-15 -2 -11 -15 5 -15 4 -16 -5 -3 -10 13 -12 13 -21 0 -7 -11 -5 -19 8 -29 11
-8 12 -12 3 -9 -8 2 -25 -6 -39 -19 -14 -13 -27 -21 -30 -18 -3 3 -12 -1 -21
-8 -14 -10 -14 -10 -4 3 10 13 8 16 -8 16 -10 0 -19 -6 -19 -13 0 -6 -4 -15
-10 -18 -6 -4 -7 1 -4 12 5 17 5 17 -10 -1 -8 -10 -20 -15 -28 -11 -7 3 -5 0
4 -7 15 -13 15 -15 -1 -25 -11 -7 -23 -7 -33 -2 -13 7 -15 5 -11 -11 3 -11 10
-17 16 -13 6 3 7 1 3 -6 -6 -9 -11 -9 -24 1 -14 11 -15 10 -9 -6 6 -16 5 -17
-7 -7 -11 9 -16 9 -22 0 -5 -8 -3 -9 6 -4 8 5 0 -9 -16 -30 -16 -22 -23 -36
-17 -31 7 4 13 2 13 -3 0 -14 -37 -51 -49 -51 -6 0 -13 -4 -16 -10 -3 -6 1 -7
9 -4 9 3 16 1 16 -5 0 -6 -5 -11 -11 -11 -6 0 -3 -7 5 -16 14 -14 14 -34 0
-34 -3 0 -3 4 0 9 3 5 -1 11 -9 14 -16 7 -9 -22 9 -36 6 -5 -1 -7 -16 -4 -25
4 -26 2 -16 -17 10 -19 10 -20 -5 -8 -14 12 -16 11 -12 -7 3 -15 0 -18 -12
-14 -12 5 -15 2 -10 -10 5 -15 3 -16 -12 -7 -17 8 -19 6 -16 -15 2 -19 -1 -23
-10 -15 -8 7 -11 4 -10 -13 1 -12 7 -22 12 -22 6 0 14 -3 18 -7 11 -10 -37 3
-67 19 -4 2 -10 -2 -14 -8 -4 -7 -3 -9 3 -6 6 4 19 0 29 -9 18 -15 18 -15 -1
-6 -11 6 -23 10 -27 11 -5 1 -9 4 -10 9 0 4 -8 12 -17 19 -9 6 -13 15 -9 19
12 11 -11 34 -28 27 -10 -4 -13 0 -8 13 3 11 2 15 -3 9 -4 -5 -15 -10 -23 -10
-13 0 -15 -40 -18 -287 -2 -194 1 -288 8 -288 5 0 10 5 10 12 0 6 2 9 5 6 8
-7 -6 -39 -14 -34 -4 3 -7 -3 -7 -13 0 -12 9 -17 32 -17 28 0 31 3 23 18 -12
23 -20 23 -13 1 5 -15 4 -16 -5 -3 -9 12 -11 13 -11 1 0 -8 -3 -11 -6 -8 -12
11 17 36 33 30 12 -5 14 -3 8 7 -6 9 -4 11 5 5 7 -4 16 -2 22 6 8 11 9 10 4
-3 -3 -10 0 -20 6 -24 7 -4 8 -3 4 4 -4 7 -2 12 4 12 6 0 8 5 5 10 -3 6 -1 10
4 10 19 0 26 2 43 11 12 7 20 4 28 -8 9 -15 10 -13 5 10 -3 16 -1 27 5 27 6 0
8 -4 5 -10 -3 -5 -1 -10 4 -10 6 0 11 6 11 13 0 7 3 8 8 2 4 -5 13 -11 21 -13
12 -3 12 0 2 12 -9 11 -9 16 0 22 8 4 9 3 5 -4 -4 -7 -1 -12 8 -12 10 0 13 -6
9 -17 -7 -19 -5 -18 15 9 10 12 10 18 1 24 -8 5 -9 3 -4 -6 5 -9 4 -11 -4 -6
-6 4 -9 12 -5 17 3 5 9 7 14 4 4 -3 10 0 12 7 2 6 12 12 21 14 9 1 15 -2 11
-7 -3 -5 -10 -7 -15 -4 -5 4 -9 2 -9 -3 0 -6 7 -12 15 -16 8 -3 14 0 12 7 -1
7 4 11 11 9 10 -2 10 2 1 19 -9 17 -8 20 3 13 23 -14 50 -15 43 -2 -4 7 4 0
17 -16 19 -22 27 -26 33 -16 5 8 4 11 -2 7 -6 -4 -13 0 -17 8 -3 8 0 17 6 21
7 4 8 3 4 -4 -4 -7 -1 -12 9 -12 9 0 14 4 10 9 -3 5 -1 13 5 16 6 4 10 3 9 -2
-3 -19 2 -23 20 -14 14 8 18 7 17 -2 0 -6 4 -12 9 -12 6 0 9 4 7 9 -1 4 11 6
27 4 27 -4 29 -3 19 16 -11 20 -10 20 7 6 11 -9 16 -10 11 -2 -4 6 -2 12 3 12
6 0 11 5 11 11 0 5 -5 7 -12 3 -7 -4 -8 -3 -4 5 4 6 12 9 17 6 5 -4 9 -1 9 4
0 6 5 11 10 11 7 0 7 -8 -1 -22 -7 -14 -7 -19 -1 -13 6 6 12 17 14 25 2 8 9
21 16 29 7 7 11 20 7 29 -5 13 -3 13 11 1 16 -13 16 -12 6 7 -9 16 -8 21 3 21
8 0 12 -4 9 -8 -2 -4 0 -10 5 -13 5 -4 8 1 7 10 -1 8 -8 19 -15 23 -9 6 -6 14
13 28 14 11 22 24 18 29 -4 5 0 3 10 -4 12 -10 18 -10 24 -1 4 8 3 9 -4 5 -7
-4 -12 -1 -12 8 0 8 -6 17 -12 19 -10 4 -9 6 1 6 11 1 11 4 0 19 -13 15 -12
16 3 4 10 -8 16 -17 15 -20 -2 -7 7 -12 19 -12 3 0 -2 10 -10 21 -8 12 -12 28
-9 37 4 10 2 13 -5 8 -6 -3 -14 -1 -18 6 -4 7 -4 10 1 6 4 -4 15 -2 23 5 9 6
13 7 9 1 -3 -6 0 -11 7 -11 11 0 13 12 7 62 -1 6 -6 3 -11 -5 -8 -11 -9 -6 -5
18 4 24 2 32 -6 26 -8 -5 -9 -3 -5 5 6 9 13 8 29 -6 21 -18 21 -17 7 1 -16 20
-22 86 -8 86 5 0 6 -11 4 -24 -4 -20 -1 -23 12 -19 9 4 11 8 5 10 -7 3 -9 11
-6 19 4 12 8 12 21 2 13 -12 14 -11 2 9 -8 12 -17 20 -20 18 -4 -2 -7 2 -7 9
0 8 8 11 19 8 10 -2 15 -9 11 -16 -4 -6 1 -5 10 3 18 14 22 22 10 20 -5 -1
-15 -1 -23 0 -13 1 -13 3 -1 10 12 8 12 12 2 25 -17 21 -7 21 13 0 15 -14 16
-14 16 1 0 9 5 13 10 10 6 -4 10 -3 9 2 -3 20 2 34 11 28 5 -3 8 0 5 7 -2 7
-6 29 -8 49 -3 31 -1 36 15 31 10 -2 18 1 18 7 0 7 4 10 8 7 4 -2 8 4 8 14 0
10 -3 17 -6 15 -3 -2 -6 7 -6 19 0 18 5 22 24 20 13 -1 21 0 18 3 -3 3 3 13
12 22 10 9 13 13 6 8 -6 -4 -17 0 -25 10 -8 9 -9 14 -2 10 6 -4 18 -5 25 -2
15 6 16 9 20 68 2 23 7 31 19 29 9 -1 22 5 29 13 9 10 9 15 1 15 -6 0 -11 -5
-11 -11 0 -6 -5 -9 -12 -7 -14 5 -20 38 -7 38 5 0 9 -4 9 -10 0 -5 7 -7 15 -4
8 4 15 10 15 16 0 5 -4 7 -8 4 -4 -2 -14 0 -22 5 -11 7 -8 8 10 5 21 -3 25 -8
23 -35 -1 -17 2 -29 6 -27 4 3 8 -1 8 -8 0 -8 -7 -12 -16 -9 -13 4 -13 2 2
-10 18 -15 24 -32 7 -22 -5 3 -10 1 -10 -4 0 -6 5 -11 11 -11 6 0 9 -7 6 -15
-4 -8 -2 -17 4 -20 5 -4 7 -11 3 -16 -3 -5 -11 -6 -17 -2 -9 5 -9 3 -1 -8 6
-8 10 -27 9 -44 -1 -16 3 -38 8 -49 7 -14 6 -16 -4 -11 -9 6 -11 3 -6 -8 3
-10 2 -17 -3 -17 -6 0 -10 5 -10 12 0 6 -3 9 -6 6 -10 -10 16 -49 28 -42 7 4
8 3 4 -5 -4 -6 -12 -9 -17 -6 -5 3 -6 -2 -2 -11 4 -11 3 -15 -5 -10 -12 7 -8
-32 4 -43 4 -3 4 3 0 14 -4 11 -3 16 1 11 4 -4 8 -17 9 -29 1 -12 4 -31 8 -42
4 -11 0 -8 -9 8 -19 32 -31 37 -14 5 7 -13 13 -23 13 -24 1 0 -6 -9 -14 -20
-8 -10 -11 -16 -6 -12 13 11 34 -14 28 -34 -6 -23 15 -24 22 0 2 9 3 -1 0 -23
-3 -30 -1 -36 7 -25 8 12 10 8 7 -16 -3 -26 -1 -31 11 -26 14 5 14 3 2 -11
-11 -15 -11 -17 2 -17 8 0 20 -7 27 -15 7 -8 17 -12 23 -8 6 3 7 1 3 -5 -5 -9
-15 -7 -34 4 -25 15 -26 15 -7 -1 11 -9 19 -21 17 -26 -1 -5 8 -4 20 2 21 11
22 11 9 -5 -8 -9 -11 -19 -7 -23 3 -3 6 -1 6 5 0 7 11 11 24 10 14 -1 22 -6
20 -10 -3 -4 -12 -4 -22 -1 -18 7 -17 5 12 -17 11 -8 17 -10 14 -5 -11 18 24
31 74 30 46 -2 46 -1 37 24 l-9 26 19 -22 c16 -19 20 -20 25 -7 3 8 2 12 -4 9
-6 -3 -10 -1 -10 4 0 6 9 11 20 11 11 0 20 5 20 12 0 6 3 8 6 5 4 -4 2 -12 -4
-20 -8 -9 -8 -17 0 -27 8 -13 9 -12 5 2 -3 9 1 19 9 22 9 3 13 10 10 14 -3 5
1 9 9 9 8 0 11 -5 8 -10 -4 -6 1 -8 11 -4 13 5 17 3 13 -7 -4 -10 -1 -13 8
-10 8 3 11 13 8 22 -3 10 -1 13 4 7 4 -5 17 -17 27 -25 18 -14 19 -13 13 2 -4
11 -2 17 6 15 7 -1 11 3 10 10 -2 8 4 10 14 6 12 -5 14 -3 8 7 -5 8 -4 11 3 7
5 -4 9 -15 7 -25 -1 -9 0 -11 2 -4 3 7 9 9 15 6 6 -4 6 1 -1 14 -7 14 -8 23
-1 27 10 6 14 -1 10 -20 -1 -5 8 -1 19 9 11 10 18 23 14 29 -3 6 -1 7 6 3 6
-4 8 -12 5 -18 -5 -7 -1 -9 9 -5 10 3 17 2 17 -2 0 -5 7 -12 16 -15 15 -6 14
-3 -1 21 -13 20 -14 24 -4 16 12 -10 18 -10 29 0 8 8 11 8 7 1 -10 -17 20 -25
33 -9 8 10 6 17 -7 31 -17 17 -17 18 0 11 10 -4 23 -7 28 -7 6 0 8 -4 5 -9 -7
-11 13 -9 33 3 8 5 17 3 23 -5 8 -11 9 -10 4 3 -3 10 0 18 6 18 6 0 5 7 -3 18
-13 15 -12 16 3 3 10 -7 16 -16 14 -20 -2 -3 2 -12 10 -19 11 -10 13 -7 8 20
-4 25 -3 29 5 18 11 -16 64 -22 54 -6 -4 5 1 7 11 3 11 -4 15 -3 11 4 -4 6
-14 8 -23 4 -9 -3 -13 -2 -8 2 4 4 17 9 29 10 74 8 106 23 35 18 -36 -3 -40
-2 -23 8 11 6 40 10 65 10 25 0 39 2 32 4 -6 3 -9 9 -6 15 4 6 -2 6 -14 -1
-12 -6 -23 -7 -26 -3 -5 8 1 10 43 14 11 1 19 5 19 8 -2 21 4 29 20 24 16 -5
16 -5 0 6 -20 12 -24 30 -7 30 5 0 7 -4 4 -10 -3 -6 1 -7 10 -4 13 6 13 8 -4
23 -16 14 -16 18 -5 29 8 7 12 17 9 22 -3 6 1 7 9 4 9 -3 16 -1 16 5 0 6 -3
10 -7 10 -21 -3 -34 2 -28 11 4 6 11 8 16 5 5 -3 6 1 3 9 -3 9 -10 16 -16 16
-5 0 -7 -4 -4 -8 3 -5 -1 -9 -9 -9 -25 0 -17 14 15 27 17 7 33 17 36 22 4 6
-3 5 -15 -1 -23 -13 -41 -7 -40 12 0 9 2 9 6 0 7 -19 23 -16 23 5 0 14 2 15
10 2 5 -8 10 -10 10 -5 0 6 7 1 15 -9 18 -24 20 -14 4 17 l-12 22 23 -20 c13
-11 20 -14 16 -7 -4 7 -1 12 9 12 9 0 14 -4 11 -8 -3 -5 1 -9 9 -9 10 0 11 7
4 26 l-9 26 20 -24 c24 -28 27 -15 3 19 l-17 25 22 -18 c20 -18 48 -15 37 4
-3 5 1 6 10 2 10 -3 13 -8 6 -12 -6 -4 -1 -12 12 -20 20 -13 21 -13 9 2 -16
19 -2 29 33 23 14 -3 23 -1 20 3 -2 5 4 16 15 26 11 10 20 15 20 11 0 -3 13 0
30 9 16 8 32 14 34 13 2 -2 8 1 13 6 4 5 3 6 -3 3 -12 -7 -29 21 -19 31 3 3 5
0 5 -6 0 -7 7 -12 15 -12 8 0 15 5 15 11 0 5 -4 7 -10 4 -6 -3 -7 1 -4 10 6
14 8 14 21 -2 8 -10 11 -12 7 -4 -5 11 -3 13 9 8 9 -3 19 -1 23 5 4 6 3 8 -2
5 -6 -3 -16 -2 -24 4 -11 6 -12 9 -2 9 8 0 10 5 6 13 -6 9 -4 9 8 -1 11 -9 18
-10 23 -2 9 14 -4 32 -17 24 -7 -5 -8 -2 -4 5 5 7 11 10 14 7 3 -3 12 0 20 7
13 9 14 9 8 0 -4 -7 -3 -21 3 -30 8 -14 10 -10 7 18 -1 27 1 36 11 32 7 -3 10
-10 6 -16 -3 -5 -1 -7 5 -4 5 4 9 18 7 32 -2 20 0 23 11 14 8 -6 11 -16 7 -22
-3 -6 -1 -7 5 -3 9 5 9 13 2 27 -9 15 -7 19 5 19 9 0 13 5 10 11 -4 6 -14 8
-22 5 -8 -4 -11 -1 -8 5 4 6 13 8 20 5 7 -2 16 2 19 10 8 21 7 26 -2 20 -5 -3
-9 1 -9 9 0 8 3 13 5 10 3 -3 12 1 21 8 14 10 14 10 4 -4 -10 -13 -10 -16 1
-16 16 0 15 19 -2 39 -15 19 -6 27 24 22 19 -3 22 -1 18 13 -3 11 0 9 8 -4 13
-22 14 -22 26 -3 7 11 8 20 3 20 -5 0 -12 -6 -14 -12 -4 -10 -6 -10 -6 -1 -1
19 18 26 34 13 10 -8 15 -9 15 -2 0 6 -8 16 -17 21 -21 12 -7 13 22 2 14 -6
25 -2 38 12 9 11 17 16 17 11 0 -6 -6 -16 -12 -23 -11 -10 -10 -11 5 -6 9 4
17 11 17 17 0 5 7 2 16 -6 19 -19 25 -20 22 -3 -2 6 3 11 10 9 6 -1 11 4 10
10 -2 7 3 12 10 10 8 -1 11 2 7 8 -3 6 -11 8 -16 5 -5 -4 -9 -2 -9 3 0 14 39
22 47 10 3 -7 1 -8 -5 -4 -8 5 -10 1 -5 -10 4 -11 8 -13 11 -6 2 7 9 9 15 5 7
-4 3 6 -7 22 -19 30 -19 30 0 13 14 -12 21 -13 29 -4 11 12 17 33 18 54 0 6 4
12 8 12 4 0 6 -11 5 -24 0 -13 -5 -21 -11 -18 -5 3 -4 -2 4 -11 7 -9 15 -17
16 -17 1 0 3 55 3 123 0 94 -3 125 -14 135 -10 9 -14 10 -14 1 0 -8 -7 -6 -18
4 -15 13 -21 14 -32 4 -10 -10 -11 -9 -5 2 6 11 4 13 -8 8 -10 -3 -17 -2 -17
4 0 6 -4 8 -9 4 -5 -3 -13 0 -17 6 -4 7 -3 9 4 5 6 -3 13 -3 16 2 2 4 -10 9
-27 10 -17 2 -34 6 -37 10 -9 12 -52 34 -45 23 9 -15 -8 -14 -24 2 -11 10 -11
8 -1 -12 l12 -23 -25 18 c-14 11 -20 22 -15 25 5 3 2 9 -7 12 -9 4 -13 3 -10
-3 3 -6 1 -10 -4 -10 -6 0 -11 9 -11 20 0 11 -5 20 -11 20 -5 0 -8 -4 -5 -8 3
-5 -2 -9 -10 -9 -8 0 -13 6 -10 13 3 8 0 11 -9 7 -8 -3 -13 -8 -10 -12 2 -4
-2 -8 -10 -8 -8 0 -12 4 -9 9 6 10 -26 6 -45 -6 -9 -6 -12 -5 -7 2 7 12 -12
20 -36 14 -10 -2 -15 -9 -11 -16 4 -6 -1 -5 -10 3 -17 14 -24 26 -9 17 4 -2 9
5 9 17 1 12 -1 17 -5 10 -11 -17 -44 -20 -49 -3 -4 12 -2 12 5 2 7 -10 11 -10
22 3 11 13 10 14 -5 9 -14 -6 -16 -4 -10 7 8 12 6 12 -8 1 -9 -8 -22 -10 -28
-6 -9 5 -10 2 -6 -9 4 -11 2 -14 -8 -10 -8 3 -12 10 -8 17 3 6 0 5 -8 -2 -12
-11 -12 -14 1 -23 12 -9 11 -9 -5 -4 -11 4 -26 8 -34 8 -10 0 -9 3 3 12 15 11
15 13 1 19 -9 3 -13 2 -10 -4 3 -6 -1 -10 -10 -10 -10 0 -13 -5 -9 -12 4 -7 3
-8 -4 -4 -6 4 -9 12 -6 19 3 9 -7 13 -35 13 -22 0 -37 -4 -34 -9 3 -5 -5 -4
-17 3 -18 9 -21 9 -15 0 5 -8 3 -11 -6 -8 -8 3 -13 11 -11 17 1 8 -4 7 -18 -1
-11 -7 -20 -17 -20 -22 0 -4 8 -2 18 5 15 13 16 12 3 -4 -10 -13 -17 -14 -26
-7 -10 8 -15 8 -21 -1 -4 -7 -3 -9 3 -6 5 3 10 0 10 -7 0 -8 -7 -12 -15 -8
-11 4 -13 1 -7 -8 6 -9 4 -11 -4 -6 -7 5 -10 15 -7 23 4 8 1 11 -5 7 -6 -3 -9
-14 -6 -25 4 -15 2 -16 -13 -6 -14 8 -25 8 -44 -1 -14 -6 -26 -8 -26 -3 0 5 6
12 13 14 9 4 9 6 -1 6 -7 1 -15 -6 -18 -14 -4 -8 -10 -12 -15 -9 -5 3 -7 10
-4 15 3 5 -1 6 -9 3 -9 -3 -14 -9 -11 -13 2 -4 -2 -8 -10 -8 -8 0 -12 4 -10 8
10 15 -25 18 -40 3 -8 -9 -15 -11 -15 -6 0 6 -7 12 -15 16 -13 4 -14 2 -5 -14
9 -16 8 -18 -5 -14 -8 4 -15 11 -15 17 0 6 -3 7 -6 4 -4 -4 -1 -14 7 -23 13
-16 12 -16 -11 -4 -19 9 -22 10 -13 0 18 -19 -6 -40 -34 -29 -13 5 -23 6 -23
3 0 -4 -8 0 -17 7 -10 7 -14 9 -10 4 4 -5 -3 -15 -15 -23 -13 -7 -16 -11 -7
-9 9 3 16 -1 16 -9 0 -7 -5 -10 -10 -7 -6 4 -8 0 -5 -8 4 -10 -1 -15 -15 -17
-16 -1 -18 1 -8 7 9 6 3 8 -17 7 -17 -1 -34 -5 -39 -9 -4 -5 0 -5 9 -2 9 4 18
2 22 -3 6 -10 -24 -9 -41 1 -6 4 -14 1 -16 -5 -4 -10 -6 -10 -6 0 -1 7 -10 3
-23 -10 -13 -13 -22 -27 -20 -31 1 -4 -7 -3 -17 3 -17 9 -19 7 -16 -12 4 -23
4 -23 -12 -3 -15 20 -15 20 -10 -2 3 -15 1 -20 -9 -16 -7 2 -10 12 -8 21 5 14
4 14 -6 -1 -6 -9 -15 -15 -20 -12 -5 3 -11 1 -14 -4 -4 -5 -1 -13 5 -17 7 -4
9 -3 5 4 -7 12 20 10 31 -3 4 -4 3 -5 -3 -2 -7 4 -17 0 -24 -8 -7 -8 -16 -13
-20 -10 -5 3 -11 1 -15 -5 -3 -5 -11 -10 -18 -10 -6 0 -2 6 9 14 10 8 16 18
11 22 -4 4 -7 2 -7 -4 0 -7 -7 -12 -16 -12 -8 0 -12 5 -8 11 3 6 -5 3 -19 -6
-15 -9 -29 -25 -32 -35 -5 -17 -24 -30 -53 -36 -6 -1 -9 3 -5 9 4 6 0 8 -10 4
-13 -5 -17 -1 -17 19 0 14 -4 23 -10 19 -6 -4 -8 -11 -5 -16 3 -5 -1 -6 -11
-2 -15 5 -15 7 0 15 9 5 13 14 10 20 -4 6 -3 8 2 5 6 -3 16 3 23 15 10 16 10
18 0 12 -9 -5 -10 -2 -6 9 7 18 -19 51 -33 42 -5 -3 -11 -1 -15 4 -3 6 5 8 17
6 28 -5 53 9 44 24 -10 15 -28 3 -20 -12 4 -7 1 -7 -7 1 -12 11 -12 15 2 25
17 13 15 37 -4 33 -7 -1 -9 -1 -4 1 4 3 4 9 1 15 -4 6 3 5 15 -1 17 -9 21 -9
19 1 -2 7 3 12 10 10 8 -1 11 2 7 8 -5 8 -11 8 -20 0 -10 -8 -15 -8 -21 1 -4
8 -3 9 5 5 6 -4 14 0 17 8 3 9 11 13 18 9 6 -3 6 -1 -1 8 -16 16 -17 29 -2 29
5 0 7 -4 4 -10 -3 -5 -2 -10 3 -10 6 0 12 7 16 15 3 8 2 14 -2 14 -20 -3 -30
3 -35 20 -4 16 0 18 19 15 13 -2 24 0 24 6 0 6 -3 9 -8 6 -4 -2 -18 2 -32 10
-21 13 -22 14 -4 9 27 -7 38 16 19 42 -8 10 -14 23 -15 28 0 6 5 3 10 -5 8
-13 10 -12 10 3 0 9 -4 17 -8 17 -13 0 -13 50 1 50 7 0 5 5 -5 10 -15 9 -15
13 -3 37 8 15 12 38 9 50 -4 14 -2 23 5 23 8 0 8 4 -1 14 -7 8 -17 11 -22 8
-5 -3 -6 0 -2 6 3 6 15 9 25 7 19 -4 22 9 7 33 -4 7 -2 20 5 30 11 14 11 15
-1 5 -18 -17 -27 -16 -27 2 0 8 4 12 9 9 4 -3 8 -1 8 5 0 5 -6 11 -12 14 -7 2
-10 8 -6 12 4 4 15 2 24 -6 16 -13 16 -12 4 8 -8 12 -18 19 -22 17 -4 -3 -8 2
-8 11 0 11 5 15 16 11 8 -3 12 -2 9 4 -3 5 -1 18 5 29 8 17 6 22 -11 32 -17 9
-19 13 -8 20 8 5 9 9 3 9 -5 0 -16 -6 -23 -12 -10 -11 -12 -10 -9 2 2 8 -2 14
-9 13 -6 -1 -10 5 -8 15 1 9 -3 20 -9 24 -8 6 -8 8 0 8 7 0 19 12 29 26 9 15
12 23 6 20 -6 -4 -11 -2 -11 3 0 21 -2 26 -12 39 -8 9 -8 16 2 25 10 10 12 9
7 -5 -3 -10 -2 -20 4 -23 5 -4 6 -11 3 -17 -4 -6 -2 -8 4 -4 13 8 8 42 -9 62
-10 12 -8 13 7 9 12 -4 10 -1 -6 10 -14 9 -17 14 -8 11 10 -3 20 0 24 6 4 7 3
8 -4 4 -8 -5 -11 2 -8 23 2 17 0 28 -5 26 -9 -6 -79 26 -79 36 0 4 5 11 12 15
7 4 8 3 4 -4 -5 -8 -1 -10 10 -5 15 5 14 7 -3 17 -12 6 -19 20 -18 33 l2 22
-266 -1 c-146 0 -259 -3 -250 -5z m-26 -66 c-19 -19 -35 -32 -35 -29 0 9 63
72 67 68 2 -2 -12 -19 -32 -39z m609 -78 c-3 -5 -11 -9 -17 -9 -7 0 -6 4 3 10
14 9 7 14 -13 11 -5 -1 -6 3 -2 9 5 8 11 8 21 -1 7 -6 11 -15 8 -20z m-14
-109 c0 -5 -2 -10 -4 -10 -3 0 -8 5 -11 10 -3 6 -1 10 4 10 6 0 11 -4 11 -10z
m-727 -26 c-4 -12 -8 -13 -14 -3 -9 15 -2 32 11 24 5 -3 6 -13 3 -21z m742 -4
c3 -5 1 -10 -4 -10 -6 0 -11 5 -11 10 0 6 2 10 4 10 3 0 8 -4 11 -10z m43
-129 c11 -6 10 -11 -3 -25 -20 -19 -32 -22 -16 -3 8 10 7 17 -1 25 -14 14 0
16 20 3z m1 -175 c7 -8 8 -17 3 -20 -6 -3 -12 3 -15 14 -6 24 -4 25 12 6z
m-18 -70 c-8 -10 -9 -16 -1 -21 5 -3 10 -11 10 -18 0 -6 -6 -2 -14 8 -14 20
-11 45 6 45 6 0 6 -6 -1 -14z m-950 -53 c13 -16 12 -17 -3 -4 -10 7 -18 15
-18 17 0 8 8 3 21 -13z m-171 -342 c0 -5 -8 -15 -17 -22 -16 -12 -17 -12 -6 2
7 9 10 19 6 22 -3 4 -1 7 5 7 7 0 12 -4 12 -9z m2620 -46 c0 -2 -9 -3 -19 -2
-11 0 -18 5 -15 9 4 6 34 0 34 -7z m135 -55 c3 -5 1 -10 -4 -10 -6 0 -11 5
-11 10 0 6 2 10 4 10 3 0 8 -4 11 -10z m-1660 -40 c-3 -5 -12 -10 -18 -10 -7
0 -6 4 3 10 19 12 23 12 15 0z m130 -60 c-3 -5 -12 -10 -18 -10 -7 0 -6 4 3
10 19 12 23 12 15 0z m-1215 -20 c8 -5 11 -10 5 -10 -5 0 -17 5 -25 10 -8 5
-10 10 -5 10 6 0 17 -5 25 -10z m2750 -120 c0 -5 -2 -10 -4 -10 -3 0 -8 5 -11
10 -3 6 -1 10 4 10 6 0 11 -4 11 -10z m-87 -53 c4 3 7 4 7 1 0 -3 -8 -12 -17
-19 -10 -7 -15 -9 -11 -5 4 5 2 16 -5 25 -10 14 -10 14 4 4 9 -7 19 -10 22 -6z
m-2673 -46 c0 -6 -4 -12 -8 -15 -5 -3 -9 1 -9 9 0 8 4 15 9 15 4 0 8 -4 8 -9z
m830 -155 c0 -2 -8 -10 -17 -17 -16 -13 -17 -12 -4 4 13 16 21 21 21 13z
m-224 -52 c8 -10 13 -14 10 -7 -4 6 -1 15 5 19 8 4 9 3 5 -4 -4 -7 -2 -12 5
-12 10 0 10 -3 1 -12 -8 -8 -15 -8 -26 1 -10 8 -16 9 -21 1 -9 -15 -25 -12
-25 4 0 8 -4 18 -10 21 -6 4 -9 -4 -7 -17 1 -17 -3 -23 -21 -24 -25 -1 -38 11
-22 21 6 4 7 11 4 17 -4 6 -3 8 2 5 6 -3 15 -2 22 2 20 12 62 5 78 -15z m232
1 c-3 -3 -9 2 -12 12 -6 14 -5 15 5 6 7 -7 10 -15 7 -18z m-234 -32 c4 -10 4
-15 1 -11 -4 3 -19 2 -35 -2 -22 -6 -28 -5 -24 5 3 8 12 11 19 9 7 -3 16 -1
20 5 9 15 12 14 19 -6z m-384 -7 c0 -2 -7 -9 -15 -16 -13 -11 -14 -10 -9 4 5
14 24 23 24 12z m538 -88 c-2 -7 2 -12 9 -11 7 2 10 -4 6 -12 -5 -13 -7 -13
-18 2 -7 10 -11 21 -9 25 8 12 14 9 12 -4z m1377 -55 c-2 -10 -4 -19 -4 -21
-1 -2 -6 0 -11 3 -8 5 -7 11 1 21 15 18 18 18 14 -3z m-1401 -44 c-3 -5 -10
-7 -15 -3 -5 3 -7 10 -3 15 3 5 10 7 15 3 5 -3 7 -10 3 -15z m-39 -68 c3 -5 2
-12 -3 -15 -5 -3 -9 1 -9 9 0 17 3 19 12 6z m1182 -83 c-3 -8 -6 -5 -6 6 -1
11 2 17 5 13 3 -3 4 -12 1 -19z m-1227 -38 c-9 -16 -40 -19 -40 -3 0 3 7 3 15
-1 9 -3 15 0 15 9 0 8 5 15 10 15 7 0 7 -6 0 -20z m-522 -10 c-7 -10 -14 -18
-15 -16 -6 6 9 36 18 36 5 0 4 -9 -3 -20z m1572 -150 c0 -5 -5 -10 -11 -10 -5
0 -7 5 -4 10 3 6 8 10 11 10 2 0 4 -4 4 -10z m-1860 -10 c0 -5 -5 -10 -11 -10
-5 0 -7 5 -4 10 3 6 8 10 11 10 2 0 4 -4 4 -10z m1765 -1 c20 3 20 3 0 -12
-11 -9 -20 -15 -20 -14 -1 1 -7 11 -15 21 -13 18 -13 19 0 11 8 -5 24 -8 35
-6z m-1725 -9 c0 -5 -5 -10 -11 -10 -5 0 -7 5 -4 10 3 6 8 10 11 10 2 0 4 -4
4 -10z m1655 -29 c3 -5 2 -12 -3 -15 -5 -3 -9 1 -9 9 0 17 3 19 12 6z m-968
-58 c0 -8 -6 -9 -19 -2 -10 5 -18 11 -18 12 0 2 8 3 18 3 10 0 19 -6 19 -13z"/>
<path d="M702 1287 c-8 -10 -6 -13 7 -13 11 0 17 6 14 13 -3 7 -6 13 -8 13 -1
0 -7 -6 -13 -13z"/>
<path d="M1232 2987 c-6 -7 -7 -18 -3 -26 6 -9 11 -10 15 -2 4 6 2 11 -5 11
-8 0 -8 4 1 15 7 8 10 15 7 15 -2 0 -9 -6 -15 -13z"/>
<path d="M575 2850 c-4 -13 -12 -19 -21 -16 -9 3 -12 1 -9 -4 3 -6 10 -10 15
-10 11 0 34 40 27 47 -3 2 -8 -5 -12 -17z"/>
<path d="M484 2709 c-3 -6 -2 -15 3 -20 5 -5 9 -1 9 11 0 23 -2 24 -12 9z"/>
<path d="M442 2655 c-7 -8 -9 -15 -4 -15 5 0 15 7 22 15 16 19 -1 19 -18 0z"/>
<path d="M1284 2654 c2 -10 8 -20 14 -22 17 -5 15 13 -2 27 -12 10 -14 9 -12
-5z"/>
<path d="M426 2618 c3 -5 10 -6 15 -3 13 9 11 12 -6 12 -8 0 -12 -4 -9 -9z"/>
<path d="M1322 2254 c-14 -16 -5 -18 17 -5 7 5 9 11 5 14 -5 3 -15 -1 -22 -9z"/>
<path d="M210 2225 c0 -7 30 -13 34 -7 3 4 -4 9 -15 9 -10 1 -19 0 -19 -2z"/>
<path d="M1320 2201 c0 -5 8 -15 18 -22 15 -12 16 -12 5 2 -7 9 -10 19 -6 22
3 4 1 7 -5 7 -7 0 -12 -4 -12 -9z"/>
<path d="M1320 2040 c0 -5 5 -10 11 -10 5 0 7 5 4 10 -3 6 -8 10 -11 10 -2 0
-4 -4 -4 -10z"/>
<path d="M2830 1910 c0 -5 5 -10 11 -10 5 0 7 5 4 10 -3 6 -8 10 -11 10 -2 0
-4 -4 -4 -10z"/>
<path d="M1579 1833 c-13 -17 -13 -17 6 -3 11 8 22 16 24 17 2 2 0 3 -6 3 -6
0 -17 -8 -24 -17z"/>
<path d="M1340 1710 c-8 -5 -12 -12 -9 -15 4 -3 12 1 19 10 14 17 11 19 -10 5z"/>
<path d="M2646 1448 c3 -5 10 -6 15 -3 13 9 11 12 -6 12 -8 0 -12 -4 -9 -9z"/>
<path d="M170 1301 c0 -6 4 -13 10 -16 6 -3 7 1 4 9 -7 18 -14 21 -14 7z"/>
<path d="M195 1260 c3 -5 8 -10 11 -10 2 0 4 5 4 10 0 6 -5 10 -11 10 -5 0 -7
-4 -4 -10z"/>
<path d="M305 1239 c-4 -6 -5 -12 -2 -15 2 -3 7 2 10 11 7 17 1 20 -8 4z"/>
<path d="M433 1231 c1 -15 4 -17 14 -9 7 5 10 14 7 19 -10 16 -23 9 -21 -10z"/>
<path d="M650 1239 c0 -5 5 -7 10 -4 6 3 10 8 10 11 0 2 -4 4 -10 4 -5 0 -10
-5 -10 -11z"/>
<path d="M275 1220 c-3 -5 -1 -10 4 -10 6 0 11 5 11 10 0 6 -2 10 -4 10 -3 0
-8 -4 -11 -10z"/>
<path d="M543 1115 c-19 -21 -16 -27 7 -13 11 7 20 16 20 20 0 12 -14 9 -27
-7z"/>
<path d="M2406 1118 c3 -5 10 -6 15 -3 13 9 11 12 -6 12 -8 0 -12 -4 -9 -9z"/>
<path d="M2354 1108 c-3 -5 -3 -12 0 -15 3 -4 6 0 6 8 0 11 2 11 10 -1 7 -11
10 -11 10 -2 0 8 5 10 13 6 6 -4 8 -3 4 1 -11 13 -36 15 -43 3z"/>
<path d="M1020 1106 c0 -2 7 -7 16 -10 8 -3 12 -2 9 4 -6 10 -25 14 -25 6z"/>
<path d="M900 1036 c0 -2 7 -7 16 -10 8 -3 12 -2 9 4 -6 10 -25 14 -25 6z"/>
<path d="M895 960 c-3 -5 -1 -10 4 -10 6 0 11 5 11 10 0 6 -2 10 -4 10 -3 0
-8 -4 -11 -10z"/>
<path d="M865 951 c-3 -5 -2 -12 3 -15 5 -3 9 1 9 9 0 17 -3 19 -12 6z"/>
<path d="M2094 912 c3 -5 0 -13 -6 -15 -9 -4 -10 -6 -1 -6 17 -1 25 16 12 25
-7 4 -9 3 -5 -4z"/>
<path d="M1410 580 c0 -5 5 -10 11 -10 5 0 7 5 4 10 -3 6 -8 10 -11 10 -2 0
-4 -4 -4 -10z"/>
<path d="M745 561 c-6 -11 13 -26 22 -17 4 3 0 6 -8 6 -11 0 -11 2 1 10 9 6
10 10 3 10 -6 0 -14 -4 -18 -9z"/>
<path d="M1224 528 c-4 -5 -3 -12 0 -15 3 -4 6 -1 6 6 0 7 4 10 9 6 5 -3 12
-2 15 3 3 5 -2 9 -10 9 -8 0 -17 -4 -20 -9z"/>
<path d="M1269 523 c-12 -16 -12 -17 2 -6 9 7 20 9 24 5 5 -4 5 -1 1 6 -9 16
-11 15 -27 -5z"/>
<path d="M703 453 c-18 -7 -16 -20 2 -20 8 0 12 4 9 8 -2 4 2 10 8 12 7 3 9 5
3 5 -5 0 -16 -2 -22 -5z"/>
<path d="M373 245 c0 -8 4 -12 9 -9 5 3 6 10 3 15 -9 13 -12 11 -12 -6z"/>
<path d="M466 248 c3 -4 9 -8 15 -8 5 0 9 4 9 8 0 5 -7 9 -15 9 -8 0 -12 -4
-9 -9z"/>
<path d="M550 250 c0 -5 5 -10 11 -10 5 0 7 5 4 10 -3 6 -8 10 -11 10 -2 0 -4
-4 -4 -10z"/>
<path d="M214 178 c-4 -6 -3 -8 4 -4 5 3 12 1 14 -6 3 -8 6 -9 11 -1 4 6 0 13
-8 17 -8 3 -17 0 -21 -6z"/>
<path d="M80 120 c8 -5 20 -10 25 -10 6 0 3 5 -5 10 -8 5 -19 10 -25 10 -5 0
-3 -5 5 -10z"/>
</g>
</svg>
